<?xml version="1.0" encoding="UTF-8" standalone="no"?>
<!-- Generator: Adobe Illustrator 16.0.0, SVG Export Plug-In . SVG Version: 6.00 Build 0)  -->

<svg
   xmlns:dc="http://purl.org/dc/elements/1.1/"
   xmlns:cc="http://creativecommons.org/ns#"
   xmlns:rdf="http://www.w3.org/1999/02/22-rdf-syntax-ns#"
   xmlns:svg="http://www.w3.org/2000/svg"
   xmlns="http://www.w3.org/2000/svg"
   xmlns:sodipodi="http://sodipodi.sourceforge.net/DTD/sodipodi-0.dtd"
   xmlns:inkscape="http://www.inkscape.org/namespaces/inkscape"
   version="1.1"
   id="Layer_1"
   x="0px"
   y="0px"
   width="870.17499"
   height="128.17227"
   viewBox="0 0 870.17501 128.17228"
   enable-background="new 0 0 430.046 260.49"
   xml:space="preserve"
   inkscape:version="0.48.4 r9939"
   sodipodi:docname="test.svg"><metadata
   id="metadata3033"><rdf:RDF><cc:Work
       rdf:about=""><dc:format>image/svg+xml</dc:format><dc:type
         rdf:resource="http://purl.org/dc/dcmitype/StillImage" /><dc:title></dc:title></cc:Work></rdf:RDF></metadata><defs
   id="defs3031">
	
	
	
	
	
	
	
	
</defs><sodipodi:namedview
   pagecolor="#ffffff"
   bordercolor="#666666"
   borderopacity="1"
   objecttolerance="10"
   gridtolerance="10"
   guidetolerance="10"
   inkscape:pageopacity="0"
   inkscape:pageshadow="2"
   inkscape:window-width="1920"
   inkscape:window-height="1005"
   id="namedview3029"
   showgrid="false"
   inkscape:zoom="1.76"
   inkscape:cx="566.76588"
   inkscape:cy="66.269685"
   inkscape:window-x="-9"
   inkscape:window-y="-9"
   inkscape:window-maximized="1"
   inkscape:current-layer="Layer_1"
   fit-margin-top="0"
   fit-margin-left="0"
   fit-margin-right="0"
   fit-margin-bottom="0" />
<polygon
   style="fill:#ffffff"
   id="polygon3012"
   points="25,50.023 75,50.023 75,0 100,0 100,125 75,125 75,75 25,75 25,125 0,125 0,0 25,0 "
   transform="translate(0.16436425,1.2540416)" /><path
   style="fill:#ffffff"
   inkscape:connector-curvature="0"
   id="path3014"
   d="m 210.16336,126.65104 -99.999,-0.122 50.151,-124.9379984 49.848,125.0599984 z m -34.966,-25.036 -14.957,-37.523998 -15.046,37.480998 30.003,0.043 0,0 z" /><polygon
   style="fill:#ffffff"
   id="polygon3016"
   points="270,25.367 320,50.367 320,25.367 270,0.367 220,25.367 220,100.367 270,125.367 320,100.367 320,75.367 270.064,100.451 245,87.867 245,37.867 "
   transform="translate(0.16436425,1.2540416)" /><polygon
   style="fill:#ffffff"
   id="polygon3018"
   points="430,0 397,0 355.007,42.016 355,0 330,0 330,125 355,125 355,83 397,125 430,125 367.351,62.51 430.093,0 "
   transform="translate(0.16436425,1.2540416)" /><path
   style="fill:#ffffff"
   inkscape:connector-curvature="0"
   id="path3020"
   d="m 512.8617,1.6528929 25,62.5000001 -25,62.500007 h -75 V 1.6528929 h 75 z m -50.016,24.9980001 0.019,74.979997 35.021,0.021 15,-37.499997 0,0 -14.954,-37.501 h -35.086 z" /><polygon
   style="fill:#ffffff"
   id="polygon3022"
   points="109.999,135.397 134.999,135.397 135.001,222.526 159.999,235.544 159.979,235.63 184.977,222.61 184.999,135.397 209.999,135.397 209.999,235.544 159.999,260.582 109.999,235.544 "
   transform="translate(437.8617,-133.8371)" /><polygon
   style="fill:#ffffff"
   id="polygon3024"
   points="319.953,135.49 286.953,135.49 244.96,177.505 244.953,135.49 219.953,135.49 219.953,260.49 244.953,260.49 244.953,218.49 286.953,260.49 319.953,260.49 257.305,198 320.046,135.49 "
   transform="translate(437.8617,-133.8371)" /><polygon
   style="fill:#ffffff"
   id="polygon3026"
   points="330.046,260.49 430.046,260.49 430.046,235.574 354.906,235.574 354.906,210.49 405.046,210.49 405.046,185.49 354.906,185.49 354.906,160.49 430.046,160.49 430.046,135.49 330.046,135.49 "
   transform="translate(437.8617,-133.8371)" />
<g
   id="Layer_2"
   transform="translate(0.16436425,1.2540416)">
</g>
</svg>